<?xml version="1.0" encoding="UTF-8"?>
<svg width="1254" height="1254" viewBox="0 0 1254 1254" xmlns="http://www.w3.org/2000/svg" role="img" aria-label="Mirabilis flower line art">
  <title>Mirabilis flower line art</title>
  <defs>
    <clipPath id="app-icon-shape">
      <rect width="1254" height="1254" rx="276" ry="276"/>
    </clipPath>
  </defs>
  <g clip-path="url(#app-icon-shape)">
  <rect width="1254" height="1254" rx="276" ry="276" fill="#FFF7E6"/>
  <path d="M 1253.00 804.00 C 1234.87 798.27 1141.00 800.60 1117.00 801.00 C 1093.00 801.40 1084.07 804.73 1073.00 807.00 C 1061.93 809.27 1043.60 814.67 1034.00 818.00 C 1024.40 821.33 1013.67 824.93 1001.00 832.00 C 988.33 839.07 937.53 870.33 939.00 871.00 C 940.47 871.67 994.00 843.67 1012.00 837.00 C 1030.00 830.33 1057.47 823.53 1074.00 821.00 C 1090.53 818.47 1119.33 816.93 1136.00 818.00 C 1152.67 819.07 1190.60 826.87 1199.00 829.00 C 1207.40 831.13 1202.47 830.40 1199.00 834.00 C 1195.53 837.60 1178.73 849.60 1173.00 856.00 C 1167.27 862.40 1159.47 875.33 1156.00 882.00 C 1152.53 888.67 1150.20 893.33 1147.00 906.00 C 1143.80 918.67 1135.33 963.80 1132.00 977.00 C 1128.67 990.20 1125.47 997.40 1122.00 1005.00 C 1118.53 1012.60 1112.53 1025.33 1106.00 1034.00 C 1099.47 1042.67 1087.27 1058.27 1073.00 1070.00 C 1058.73 1081.73 1012.73 1110.40 999.00 1122.00 C 985.27 1133.60 976.13 1146.73 970.00 1157.00 C 963.87 1167.27 956.20 1186.20 953.00 1199.00 C 949.80 1211.80 941.87 1245.80 946.00 1253.00 C 950.13 1260.20 978.67 1256.47 984.00 1253.00 C 989.33 1249.53 984.67 1234.47 986.00 1227.00 C 987.33 1219.53 990.00 1206.20 994.00 1197.00 C 998.00 1187.80 1009.87 1166.40 1016.00 1158.00 C 1022.13 1149.60 1026.93 1144.00 1040.00 1134.00 C 1053.07 1124.00 1099.73 1094.47 1114.00 1083.00 C 1128.27 1071.53 1139.93 1057.87 1147.00 1048.00 C 1154.07 1038.13 1161.53 1025.27 1167.00 1009.00 C 1172.47 992.73 1183.47 941.47 1188.00 926.00 C 1192.53 910.53 1195.93 901.80 1201.00 893.00 C 1206.07 884.20 1219.07 866.53 1226.00 860.00 C 1232.93 853.47 1249.40 851.47 1253.00 844.00 C 1256.60 836.53 1271.13 809.73 1253.00 804.00 Z M 902.00 187.00 C 902.67 183.80 875.47 225.93 866.00 243.00 C 856.53 260.07 839.27 295.27 831.00 315.00 C 822.73 334.73 809.73 372.20 804.00 391.00 C 798.27 409.80 791.73 434.93 788.00 456.00 C 784.27 477.07 777.73 523.80 776.00 549.00 C 774.27 574.20 773.27 613.80 775.00 645.00 C 776.73 676.20 791.13 781.53 789.00 783.00 C 786.87 784.47 764.73 685.47 759.00 656.00 C 753.27 626.53 748.53 583.73 746.00 562.00 C 743.47 540.27 742.00 502.07 740.00 493.00 C 738.00 483.93 731.80 480.67 731.00 494.00 C 730.20 507.33 731.73 566.73 734.00 593.00 C 736.27 619.27 743.73 667.40 748.00 691.00 C 752.27 714.60 758.00 740.53 766.00 770.00 C 774.00 799.47 817.60 927.07 808.00 912.00 C 798.40 896.93 713.20 698.87 694.00 657.00 C 674.80 615.13 672.93 614.27 664.00 598.00 C 655.07 581.73 633.00 542.73 627.00 535.00 C 621.00 527.27 611.13 521.07 619.00 540.00 C 626.87 558.93 669.20 640.87 686.00 677.00 C 702.80 713.13 737.27 792.73 745.00 811.00 C 752.73 829.27 754.00 832.40 744.00 814.00 C 734.00 795.60 682.80 695.93 670.00 673.00 C 657.20 650.07 653.73 649.07 648.00 642.00 C 642.27 634.93 630.73 622.13 627.00 620.00 C 623.27 617.87 618.53 622.13 620.00 626.00 C 621.47 629.87 631.87 639.93 638.00 649.00 C 644.13 658.07 647.47 658.40 666.00 694.00 C 684.53 729.60 767.67 892.53 777.00 916.00 C 786.33 939.47 747.73 884.40 736.00 870.00 C 724.27 855.60 711.00 840.80 689.00 808.00 C 667.00 775.20 589.93 652.67 571.00 624.00 C 552.07 595.33 555.00 602.20 547.00 593.00 C 539.00 583.80 522.60 565.27 511.00 555.00 C 499.40 544.73 472.93 524.40 460.00 516.00 C 447.07 507.60 426.53 497.33 414.00 492.00 C 401.47 486.67 379.47 479.20 366.00 476.00 C 352.53 472.80 311.13 466.67 313.00 468.00 C 314.87 469.33 365.33 480.93 380.00 486.00 C 394.67 491.07 410.87 499.07 423.00 506.00 C 435.13 512.93 458.33 527.87 471.00 538.00 C 483.67 548.13 504.93 567.20 518.00 582.00 C 531.07 596.80 551.80 622.87 569.00 649.00 C 586.20 675.13 629.13 750.00 647.00 778.00 C 664.87 806.00 702.33 852.60 703.00 859.00 C 703.67 865.40 663.87 832.93 652.00 826.00 C 640.13 819.07 624.40 811.40 614.00 807.00 C 603.60 802.60 586.80 796.20 574.00 793.00 C 561.20 789.80 518.00 782.07 518.00 783.00 C 518.00 783.93 558.67 793.73 574.00 800.00 C 589.33 806.27 618.87 821.60 633.00 830.00 C 647.13 838.40 663.33 849.27 680.00 863.00 C 696.67 876.73 755.47 926.20 758.00 933.00 C 760.53 939.80 713.93 918.00 699.00 914.00 C 684.07 910.00 658.53 905.00 646.00 903.00 C 633.47 901.00 620.73 899.13 605.00 899.00 C 589.27 898.87 546.40 900.00 528.00 902.00 C 509.60 904.00 482.47 909.87 467.00 914.00 C 451.53 918.13 424.80 927.67 412.00 933.00 C 399.20 938.33 379.93 948.80 371.00 954.00 C 362.07 959.20 351.13 967.07 345.00 972.00 C 338.87 976.93 322.33 992.07 325.00 991.00 C 327.67 989.93 353.40 970.40 365.00 964.00 C 376.60 957.60 398.13 947.93 412.00 943.00 C 425.87 938.07 452.60 930.47 469.00 927.00 C 485.40 923.53 516.60 918.47 535.00 917.00 C 553.40 915.53 590.87 915.33 607.00 916.00 C 623.13 916.67 643.33 919.73 656.00 922.00 C 668.67 924.27 687.20 928.07 702.00 933.00 C 716.80 937.93 765.67 953.27 767.00 959.00 C 768.33 964.73 725.87 970.13 712.00 976.00 C 698.13 981.87 674.07 995.80 663.00 1003.00 C 651.93 1010.20 644.60 1014.67 629.00 1030.00 C 613.40 1045.33 571.07 1094.80 546.00 1118.00 C 520.93 1141.20 458.20 1190.27 441.00 1204.00 C 423.80 1217.73 424.87 1216.20 417.00 1221.00 C 409.13 1225.80 392.40 1235.73 382.00 1240.00 C 371.60 1244.27 329.00 1251.27 339.00 1253.00 C 349.00 1254.73 435.40 1257.27 457.00 1253.00 C 478.60 1248.73 490.60 1229.53 501.00 1221.00 C 511.40 1212.47 528.07 1192.47 535.00 1189.00 C 541.93 1185.53 548.87 1192.73 553.00 1195.00 C 557.13 1197.27 562.67 1202.27 566.00 1206.00 C 569.33 1209.73 574.53 1216.73 578.00 1223.00 C 581.47 1229.27 581.20 1249.00 592.00 1253.00 C 602.80 1257.00 654.87 1261.67 659.00 1253.00 C 663.13 1244.33 630.60 1199.33 623.00 1188.00 C 615.40 1176.67 608.40 1172.40 602.00 1168.00 C 595.60 1163.60 578.60 1158.33 575.00 1155.00 C 571.40 1151.67 572.20 1149.40 575.00 1143.00 C 577.80 1136.60 589.60 1116.47 596.00 1107.00 C 602.40 1097.53 614.87 1081.33 623.00 1072.00 C 631.13 1062.67 649.40 1044.20 657.00 1037.00 C 664.60 1029.80 669.87 1024.67 680.00 1018.00 C 690.13 1011.33 721.27 992.47 733.00 987.00 C 744.73 981.53 759.87 978.60 768.00 977.00 C 776.13 975.40 789.73 975.00 794.00 975.00 C 798.27 975.00 801.33 973.53 800.00 977.00 C 798.67 980.47 787.73 994.20 784.00 1001.00 C 780.27 1007.80 775.33 1017.33 772.00 1028.00 C 768.67 1038.67 760.87 1065.93 759.00 1081.00 C 757.13 1096.07 756.80 1125.67 758.00 1141.00 C 759.20 1156.33 767.07 1191.87 768.00 1196.00 C 768.93 1200.13 765.27 1183.33 765.00 1172.00 C 764.73 1160.67 764.67 1125.67 766.00 1111.00 C 767.33 1096.33 771.93 1073.73 775.00 1062.00 C 778.07 1050.27 785.00 1032.07 789.00 1023.00 C 793.00 1013.93 800.20 1001.20 805.00 994.00 C 809.80 986.80 818.33 974.87 825.00 969.00 C 831.67 963.13 847.00 954.27 855.00 950.00 C 863.00 945.73 877.93 939.40 885.00 937.00 C 892.07 934.60 902.00 932.67 908.00 932.00 C 914.00 931.33 921.47 930.53 930.00 932.00 C 938.53 933.47 963.07 939.80 972.00 943.00 C 980.93 946.20 989.80 951.47 997.00 956.00 C 1004.20 960.53 1015.60 967.27 1026.00 977.00 C 1036.40 986.73 1071.80 1027.13 1075.00 1029.00 C 1078.20 1030.87 1057.33 1000.33 1050.00 991.00 C 1042.67 981.67 1030.27 967.40 1020.00 959.00 C 1009.73 950.60 982.20 933.20 973.00 928.00 C 963.80 922.80 957.80 921.73 951.00 920.00 C 944.20 918.27 929.47 915.40 922.00 915.00 C 914.53 914.60 903.00 915.40 895.00 917.00 C 887.00 918.60 865.33 931.40 862.00 927.00 C 858.67 922.60 866.53 898.00 870.00 884.00 C 873.47 870.00 881.87 838.93 888.00 822.00 C 894.13 805.07 908.00 772.47 916.00 757.00 C 924.00 741.53 940.67 716.53 948.00 706.00 C 955.33 695.47 960.20 688.80 971.00 678.00 C 981.80 667.20 1015.13 636.07 1029.00 625.00 C 1042.87 613.93 1061.80 602.33 1075.00 595.00 C 1088.20 587.67 1112.27 576.00 1128.00 570.00 C 1143.73 564.00 1176.60 553.73 1193.00 550.00 C 1209.40 546.27 1243.00 543.47 1251.00 542.00 C 1259.00 540.53 1261.53 538.60 1253.00 539.00 C 1244.47 539.40 1205.27 541.53 1187.00 545.00 C 1168.73 548.47 1134.27 558.07 1116.00 565.00 C 1097.73 571.93 1067.33 586.47 1050.00 597.00 C 1032.67 607.53 1001.07 630.67 986.00 644.00 C 970.93 657.33 948.33 682.47 937.00 697.00 C 925.67 711.53 909.80 736.20 901.00 753.00 C 892.20 769.80 877.93 802.33 871.00 823.00 C 864.07 843.67 852.33 896.27 849.00 908.00 C 845.67 919.73 848.27 934.87 846.00 911.00 C 843.73 887.13 833.73 763.53 832.00 729.00 C 830.27 694.47 831.27 670.67 833.00 652.00 C 834.73 633.33 844.33 597.67 845.00 589.00 C 845.67 580.33 839.73 585.53 838.00 587.00 C 836.27 588.47 834.00 594.13 832.00 600.00 C 830.00 605.87 824.87 622.07 823.00 631.00 C 821.13 639.93 818.80 653.53 818.00 667.00 C 817.20 680.47 816.07 705.47 817.00 732.00 C 817.93 758.53 825.93 857.33 825.00 866.00 C 824.07 874.67 814.00 820.47 810.00 797.00 C 806.00 773.53 797.67 714.80 795.00 690.00 C 792.33 665.20 790.27 633.53 790.00 611.00 C 789.73 588.47 791.27 542.60 793.00 521.00 C 794.73 499.40 799.00 469.53 803.00 449.00 C 807.00 428.47 815.27 391.27 823.00 367.00 C 830.73 342.73 850.47 291.00 861.00 267.00 C 871.53 243.00 901.33 190.20 902.00 187.00 Z M 1145.00 57.00 C 1131.53 47.67 1069.67 7.60 1055.00 0.00 C 1040.33 -7.60 1040.47 -1.20 1035.00 0.00 C 1029.53 1.20 1019.60 7.93 1014.00 9.00 C 1008.40 10.07 997.53 9.20 993.00 8.00 C 988.47 6.80 997.33 1.07 980.00 0.00 C 962.67 -1.07 886.07 -4.67 863.00 0.00 C 839.93 4.67 824.33 21.80 807.00 35.00 C 789.67 48.20 753.53 84.87 733.00 99.00 C 712.47 113.13 667.53 131.67 653.00 141.00 C 638.47 150.33 630.13 161.27 624.00 169.00 C 617.87 176.73 610.33 190.20 607.00 199.00 C 603.67 207.80 599.80 226.33 599.00 235.00 C 598.20 243.67 598.60 251.87 601.00 264.00 C 603.40 276.13 619.93 322.80 617.00 326.00 C 614.07 329.20 588.07 295.47 579.00 288.00 C 569.93 280.53 557.93 274.27 549.00 270.00 C 540.07 265.73 522.00 258.67 512.00 256.00 C 502.00 253.33 482.67 249.20 474.00 250.00 C 465.33 250.80 453.27 260.27 447.00 262.00 C 440.73 263.73 433.93 264.73 427.00 263.00 C 420.07 261.27 401.93 251.53 395.00 249.00 C 388.07 246.47 382.33 244.80 375.00 244.00 C 367.67 243.20 348.67 242.60 340.00 243.00 C 331.33 243.40 320.00 244.60 310.00 247.00 C 300.00 249.40 277.13 255.67 265.00 261.00 C 252.87 266.33 228.87 279.93 219.00 287.00 C 209.13 294.07 199.40 302.67 191.00 314.00 C 182.60 325.33 162.93 361.73 156.00 372.00 C 149.07 382.27 143.67 387.13 139.00 391.00 C 134.33 394.87 127.80 398.47 121.00 401.00 C 114.20 403.53 94.27 407.47 88.00 410.00 C 81.73 412.53 76.67 417.20 74.00 420.00 C 71.33 422.80 68.93 427.53 68.00 431.00 C 67.07 434.47 63.13 434.93 67.00 446.00 C 70.87 457.07 93.00 502.93 97.00 514.00 C 101.00 525.07 98.60 522.20 97.00 529.00 C 95.40 535.80 86.73 557.67 85.00 565.00 C 83.27 572.33 83.60 578.93 84.00 584.00 C 84.40 589.07 85.47 596.60 88.00 603.00 C 90.53 609.40 98.47 624.93 103.00 632.00 C 107.53 639.07 116.53 650.13 122.00 656.00 C 127.47 661.87 137.33 671.20 144.00 676.00 C 150.67 680.80 162.13 688.13 172.00 692.00 C 181.87 695.87 208.53 701.67 218.00 705.00 C 227.47 708.33 237.27 713.53 243.00 717.00 C 248.73 720.47 254.07 724.20 261.00 731.00 C 267.93 737.80 299.67 760.27 295.00 768.00 C 290.33 775.73 241.20 783.00 226.00 789.00 C 210.80 795.00 190.73 807.00 181.00 813.00 C 171.27 819.00 160.47 827.60 153.00 834.00 C 145.53 840.40 132.20 852.73 125.00 861.00 C 117.80 869.27 104.60 887.07 99.00 896.00 C 93.40 904.93 86.60 917.87 83.00 928.00 C 79.40 938.13 73.33 962.40 72.00 972.00 C 70.67 981.60 71.40 991.07 73.00 1000.00 C 74.60 1008.93 82.53 1031.27 84.00 1039.00 C 85.47 1046.73 84.53 1053.20 84.00 1058.00 C 83.47 1062.80 82.27 1069.00 80.00 1075.00 C 77.73 1081.00 71.40 1095.27 67.00 1103.00 C 62.60 1110.73 53.40 1124.47 47.00 1133.00 C 40.60 1141.53 25.27 1160.07 19.00 1167.00 C 12.73 1173.93 2.53 1175.27 0.00 1185.00 C -2.53 1194.73 -3.07 1232.93 0.00 1240.00 C 3.07 1247.07 12.87 1240.93 23.00 1238.00 C 33.13 1235.07 64.93 1221.07 76.00 1218.00 C 87.07 1214.93 98.13 1214.20 106.00 1215.00 C 113.87 1215.80 126.73 1218.93 135.00 1224.00 C 143.27 1229.07 152.27 1249.13 168.00 1253.00 C 183.73 1256.87 244.73 1253.93 253.00 1253.00 C 261.27 1252.07 235.73 1248.40 230.00 1246.00 C 224.27 1243.60 219.33 1242.20 210.00 1235.00 C 200.67 1227.80 170.27 1199.47 160.00 1192.00 C 149.73 1184.53 141.27 1180.87 133.00 1179.00 C 124.73 1177.13 108.80 1176.53 98.00 1178.00 C 87.20 1179.47 52.00 1196.93 52.00 1190.00 C 52.00 1183.07 88.93 1141.20 98.00 1126.00 C 107.07 1110.80 116.67 1088.00 120.00 1076.00 C 123.33 1064.00 123.27 1044.27 123.00 1036.00 C 122.73 1027.73 118.67 1021.07 118.00 1014.00 C 117.33 1006.93 116.13 993.53 118.00 983.00 C 119.87 972.47 127.33 946.47 132.00 935.00 C 136.67 923.53 147.00 905.93 153.00 897.00 C 159.00 888.07 169.80 875.33 177.00 868.00 C 184.20 860.67 199.13 847.87 207.00 842.00 C 214.87 836.13 228.40 828.13 236.00 824.00 C 243.60 819.87 254.53 814.60 264.00 811.00 C 273.47 807.40 285.93 801.80 307.00 797.00 C 328.07 792.20 401.73 779.67 422.00 775.00 C 442.27 770.33 449.53 766.00 459.00 762.00 C 468.47 758.00 503.80 746.07 493.00 745.00 C 482.20 743.93 396.53 753.20 378.00 754.00 C 359.47 754.80 360.67 753.13 354.00 751.00 C 347.33 748.87 339.33 745.33 328.00 738.00 C 316.67 730.67 280.20 702.93 269.00 696.00 C 257.80 689.07 253.07 688.53 244.00 686.00 C 234.93 683.47 211.67 681.00 201.00 677.00 C 190.33 673.00 171.87 661.87 164.00 656.00 C 156.13 650.13 147.07 640.47 142.00 633.00 C 136.93 625.53 128.53 607.60 126.00 600.00 C 123.47 592.40 122.47 584.67 123.00 576.00 C 123.53 567.33 129.07 543.00 130.00 535.00 C 130.93 527.00 130.93 521.33 130.00 516.00 C 129.07 510.67 127.53 503.40 123.00 495.00 C 118.47 486.60 99.87 459.67 96.00 453.00 C 92.13 446.33 93.87 447.27 94.00 445.00 C 94.13 442.73 95.00 438.40 97.00 436.00 C 99.00 433.60 101.67 429.53 109.00 427.00 C 116.33 424.47 143.20 420.20 152.00 417.00 C 160.80 413.80 169.53 407.27 175.00 403.00 C 180.47 398.73 186.60 393.00 193.00 385.00 C 199.40 377.00 215.53 352.33 223.00 343.00 C 230.47 333.67 243.27 320.47 249.00 315.00 C 254.73 309.53 260.27 305.47 266.00 302.00 C 271.73 298.53 282.80 292.07 292.00 289.00 C 301.20 285.93 324.33 280.47 335.00 279.00 C 345.67 277.53 363.47 277.60 372.00 278.00 C 380.53 278.40 391.00 280.00 399.00 282.00 C 407.00 284.00 425.07 291.40 432.00 293.00 C 438.93 294.60 445.27 295.60 451.00 294.00 C 456.73 292.40 469.40 282.73 475.00 281.00 C 480.60 279.27 487.40 279.93 493.00 281.00 C 498.60 282.07 507.53 284.33 517.00 289.00 C 526.47 293.67 555.47 310.53 564.00 316.00 C 572.53 321.47 575.40 324.40 581.00 330.00 C 586.60 335.60 598.93 347.07 606.00 358.00 C 613.07 368.93 624.67 388.13 634.00 412.00 C 643.33 435.87 675.47 554.87 676.00 537.00 C 676.53 519.13 642.53 319.73 638.00 278.00 C 633.47 236.27 640.40 234.40 642.00 224.00 C 643.60 213.60 647.33 206.00 650.00 200.00 C 652.67 194.00 658.13 184.33 662.00 179.00 C 665.87 173.67 673.93 164.53 679.00 160.00 C 684.07 155.47 691.20 149.13 700.00 145.00 C 708.80 140.87 734.73 133.53 745.00 129.00 C 755.27 124.47 763.13 121.67 777.00 111.00 C 790.87 100.33 836.07 59.53 849.00 49.00 C 861.93 38.47 867.87 35.60 874.00 32.00 C 880.13 28.40 889.27 24.13 895.00 22.00 C 900.73 19.87 911.27 16.53 917.00 16.00 C 922.73 15.47 933.47 16.40 938.00 18.00 C 942.53 19.60 947.67 24.40 951.00 28.00 C 954.33 31.60 959.93 42.07 963.00 45.00 C 966.07 47.93 970.13 49.47 974.00 50.00 C 977.87 50.53 984.80 51.67 992.00 49.00 C 999.20 46.33 1021.47 32.67 1028.00 30.00 C 1034.53 27.33 1036.87 27.27 1041.00 29.00 C 1045.13 30.73 1049.80 38.20 1059.00 43.00 C 1068.20 47.80 1101.47 60.33 1110.00 65.00 C 1118.53 69.67 1120.07 73.87 1123.00 78.00 C 1125.93 82.13 1130.40 90.80 1132.00 96.00 C 1133.60 101.20 1134.87 111.27 1135.00 117.00 C 1135.13 122.73 1137.13 125.13 1133.00 139.00 C 1128.87 152.87 1107.87 207.53 1104.00 221.00 C 1100.13 234.47 1102.40 233.07 1104.00 240.00 C 1105.60 246.93 1114.67 265.53 1116.00 273.00 C 1117.33 280.47 1115.87 289.20 1114.00 296.00 C 1112.13 302.80 1106.00 317.07 1102.00 324.00 C 1098.00 330.93 1089.47 342.00 1084.00 348.00 C 1078.53 354.00 1071.80 360.73 1061.00 369.00 C 1050.20 377.27 1013.67 401.60 1003.00 410.00 C 992.33 418.40 987.13 424.40 981.00 432.00 C 974.87 439.60 963.00 455.80 957.00 467.00 C 951.00 478.20 940.80 501.87 936.00 516.00 C 931.20 530.13 925.13 551.40 921.00 573.00 C 916.87 594.60 907.27 660.93 905.00 678.00 C 902.73 695.07 899.47 713.40 904.00 701.00 C 908.53 688.60 931.40 607.67 939.00 585.00 C 946.60 562.33 954.07 545.13 961.00 531.00 C 967.93 516.87 983.27 490.20 991.00 479.00 C 998.73 467.80 1009.27 455.53 1019.00 447.00 C 1028.73 438.47 1050.67 422.47 1064.00 415.00 C 1077.33 407.53 1101.67 397.00 1119.00 391.00 C 1136.33 385.00 1180.80 373.20 1194.00 370.00 C 1207.20 366.80 1210.13 367.27 1218.00 367.00 C 1225.87 366.73 1248.33 372.80 1253.00 368.00 C 1257.67 363.20 1261.27 335.13 1253.00 331.00 C 1244.73 326.87 1210.20 332.60 1191.00 337.00 C 1171.80 341.40 1117.00 364.40 1109.00 364.00 C 1101.00 363.60 1126.33 342.00 1131.00 334.00 C 1135.67 326.00 1141.87 312.27 1144.00 304.00 C 1146.13 295.73 1148.20 279.87 1147.00 272.00 C 1145.80 264.13 1136.87 251.53 1135.00 245.00 C 1133.13 238.47 1132.47 228.47 1133.00 223.00 C 1133.53 217.53 1135.13 212.80 1139.00 204.00 C 1142.87 195.20 1158.00 166.87 1162.00 157.00 C 1166.00 147.13 1168.07 136.93 1169.00 130.00 C 1169.93 123.07 1169.53 110.60 1169.00 105.00 C 1168.47 99.40 1166.73 92.67 1165.00 88.00 C 1163.27 83.33 1158.67 74.13 1156.00 70.00 C 1153.33 65.87 1158.47 66.33 1145.00 57.00 Z" fill="#711DB8" fill-rule="evenodd"/>
  <circle cx="734.07" cy="473.95" r="18.19" fill="#F9C50B"/>
  <circle cx="612.07" cy="519.63" r="18.09" fill="#F9C50B"/>
  <circle cx="848.26" cy="570.11" r="18.19" fill="#F9C50B"/>
  <circle cx="609.96" cy="606.96" r="18.08" fill="#F9C50B"/>
  </g>
</svg>
